# xmcd
# 
# Track frame offsets:
#     150
#     21379
#     49630
#     97509
#     100848
#     104944
#     154264
#     182473
#     225526
#     264849
#     290877
#     305627
#     323249
#     333902
# 
# Disc length: 4656
# 
# Revision: 1
# Processed by: cddbd v1.5.2PL0 Copyright (c) Steve Scherf et al.
# Submitted via: fre:ac v1.0.31
# 
DISCID=bb122e0e
DTITLE=Phish - At the Roxy Disc 8
DYEAR=2008
DGENRE=Rock/Pop
TTITLE0=Axilla
TTITLE1=The Curtain
TTITLE2=Stash
TTITLE3=Manteca
TTITLE4=Stash #2
TTITLE5=The Lizards
TTITLE6=Bathtub Gin
TTITLE7=Hold Your Head Up - Cracklin' Rosie - Hold Your Head Up - Tuning
TTITLE8=The Squirming Coil
TTITLE9=Big Black Furry Creature From Mars
TTITLE10=Sweet Adeline
TTITLE11=Good Times, Bad Times
TTITLE12=Paul and Silas
TTITLE13=Pig in a Pen
EXTD=
EXTT0=
EXTT1=
EXTT2=
EXTT3=
EXTT4=
EXTT5=
EXTT6=
EXTT7=
EXTT8=
EXTT9=
EXTT10=
EXTT11=
EXTT12=
EXTT13=
PLAYORDER=
